<svg id="Layer_1" data-name="Layer 1" xmlns="http://www.w3.org/2000/svg" viewBox="0 0 197.08 257.31"><defs><style>.cls-1{fill:none;}.cls-1,.cls-10,.cls-2,.cls-3{stroke:#000;stroke-miterlimit:10;}.cls-1,.cls-2{stroke-width:4px;}.cls-2,.cls-3{fill:#fff;}.cls-4,.cls-7{font-size:36.68px;font-family:Ubuntu-Bold, Ubuntu;font-weight:700;}.cls-5{letter-spacing:0.03em;}.cls-6{letter-spacing:-0.01em;}.cls-7{fill:#ff4c4d;letter-spacing:-0.02em;}.cls-8{letter-spacing:-0.02em;}.cls-9{letter-spacing:0em;}</style></defs><title>capgownvote</title><polygon class="cls-1" points="194.85 255.31 2 255.31 2 2.31 169.51 2.31 194.85 27.61 194.85 27.61 194.85 255.31"/><path class="cls-2" d="M196.35,28.11,183.87,15.65,171.24,3h0V28.3h25.08A.62.62,0,0,1,196.35,28.11Z" transform="translate(-1.69 -0.69)"/><path class="cls-3" d="M216,36.57" transform="translate(-1.69 -0.69)"/><line class="cls-2" x1="169.51" y1="2.31" x2="2" y2="2.31"/><line class="cls-1" x1="194.85" y1="27.61" x2="194.85" y2="255.31"/><polyline class="cls-1" points="51.27 47.05 51.27 65.8 13.72 65.8 13.72 28.3 32.5 28.3"/><polyline class="cls-1" points="51.27 128.81 51.27 147.56 13.72 147.56 13.72 110.06 32.5 110.06"/><path class="cls-2" d="M34.19,110.75" transform="translate(-1.69 -0.69)"/><rect class="cls-1" x="13.72" y="191.82" width="37.55" height="37.5"/><text class="cls-4" transform="translate(67.81 59.7)"><tspan class="cls-5">C</tspan><tspan x="24.8" y="0">AP</tspan></text><text class="cls-4" transform="translate(67.81 141.46)">G<tspan class="cls-6" x="25.75" y="0">O</tspan><tspan x="54.37" y="0">WN</tspan></text><text class="cls-7" transform="translate(67.81 223.22)">V<tspan class="cls-8" x="25.57" y="0">O</tspan><tspan class="cls-9" x="53.71" y="0">TE</tspan></text><polygon class="cls-10" points="58.93 28.46 32.93 57.46 19.93 44.13 25.8 40.34 32.5 47.05 51.84 23.71 58.93 28.46"/><polygon class="cls-10" points="58.93 111.06 32.93 140.06 19.93 126.73 25.8 122.94 32.5 129.65 51.84 106.31 58.93 111.06"/></svg>