<svg version="1" xmlns="http://www.w3.org/2000/svg" width="1370.667" height="1370.667" viewBox="0 0 1028.000000 1028.000000"><path d="M789.8.5c-.2.3-150.8.5-334.6.5H121v1027h786l.1-4.8c0-2.6 0-209.8.1-460.5V107l-53.4-53.5L800.3 0h-5c-2.7 0-5.2.2-5.5.5zm-.3 17.6c.3.4.6 5.1.5 10.5-.1 13.2-.1 12.1 0 19.4.1 3.6 0 6.9-.1 7.5-.1.5 0 1.4.1 2 .2 1.2.2 25.6-.1 27-.1.5-.1 1.4.1 2 .2 1.2.2 15.6-.1 17-.1.5 0 1.4.1 2 .1.5.2 3.5.1 6.6-.1 4.6.2 5.7 1.6 6.1 1 .2 23.7.3 50.6.3l48.7-.1v893.5H137V515.1c0-273.2.2-497 .4-497.2.7-.7 651.4-.5 652.1.2z"/><path d="M314.5 107.7c-10.7 13.1-35.9 43.5-40.3 48.8-.9 1.1-3.7 4.5-6.2 7.5s-4.7 5.7-5 6c-.3.3-2.3 2.7-4.5 5.5-2.2 2.7-4.9 6-5.9 7.2l-1.9 2.2-12.9-12.7c-7.1-7-13.1-12.9-13.3-13.1-.2-.2-1.7.5-3.2 1.5-1.5 1-3.6 2.3-4.5 2.9-5.2 3-18.8 12.1-18.8 12.5 0 1.2 53.9 56 55.1 56 .5 0 .9-.3.9-.8 0-.4 2.4-3.2 5.3-6.3 2.8-3.1 7.9-8.7 11.2-12.4 3.3-3.8 8-9.1 10.5-11.8 5.8-6.4 8.7-9.6 13-14.4 1.9-2.1 6.9-7.6 11-12.2 8.7-9.7 7.2-8.1 17.5-19.6 4.4-5 9.1-10.2 10.5-11.7 1.4-1.5 3.6-4 5-5.5 1.4-1.6 5.5-6.3 9.2-10.3 9.3-10.4 11.8-13.4 11.8-14 0-.3-1.6-1.4-3.5-2.4-1.9-1.1-3.5-2.3-3.5-2.8 0-.4-.5-.8-1.1-.8-.7 0-5.8-3.2-11.5-7-5.6-3.9-10.8-7-11.6-7-.7 0-6.7 6.7-13.3 14.7z"/><path d="M167.9 105.7c-.1 1-.1 162.5 0 164 .1.9 19.2 1.2 83 1.2h82.8v-41c0-44.8.2-43.5-5.7-41.9-1.4.4-3.7.3-5.1-.1-5.3-1.4-5.2-1.6-5.3 33.8l-.1 32.8-66.7.2c-50.7.1-66.8-.1-66.9-1-.5-8.1 0-130.7.5-131.6.5-.8 9.9-1.1 33.7-1.1H251v-16h-41.5c-22.8 0-41.5.3-41.6.7zM445 135.1c-8.9.8-14.5 2.5-21.5 6.4-10.2 5.7-18.6 16.5-22.1 28.4-3.6 12-2.3 34 2.7 44.7 2.1 4.6 8.1 12.9 11.3 15.6 2.7 2.2 13.6 8.1 13.6 7.3 0-.3.8-.1 1.8.4 4.3 2.3 21.9 3.3 32.2 1.8 5.4-.7 14.5-3.4 18.2-5.3l2.7-1.4-3.2-9.1c-2.4-6.7-3.6-8.9-4.7-8.5-.8.2-3.4 1.2-5.8 2.1-3.9 1.4-10 2.4-17.2 2.9-4 .3-12.1-1.4-16-3.4-5.9-3-11.4-10.1-12.3-15.9-.1-.9-.5-2.1-.8-2.6-.3-.6-.7-4.6-.8-9-.5-15.8 4.1-25.7 14.6-31.6 4.5-2.6 16-3.5 24-1.8 2.9.6 5.5 1 5.8 1 .2 0 2.1.9 4.2 1.9 2.1 1 3.9 1.7 4 1.6.4-.4 6.3-17.1 6.3-17.8 0-1.2-8.5-4.7-15.2-6.2-8.3-1.9-13.9-2.3-21.8-1.5zM635.7 135.6c-.1.1-4.2.4-9.2.7-4.9.4-11.1.9-13.7 1.3l-4.7.7.2 4.3c.1 2.4-.1 4.4-.5 4.4s-.3 1.2.1 2.7c.5 1.6.5 3.7.1 4.8-.4 1.1-.5 2.4-.2 2.9.3.6.5 2.8.4 5-.3 4.4-.3 4.8-.1 11.6 0 2.5 0 4.9-.1 5.5-.1.5-.1 1.4 0 2 .4 2.3 0 19.6-.5 20.5-.3.6-.3 1 .2 1 .8 0 .7 12.5-.2 14.7-.2.7-.1 1.3.4 1.3.4 0 .5 2.3.1 5-.4 2.8-.4 5.2-.2 5.5.3.3.6 2.4.6 4.7l.1 4.3h10.8c6 0 11.1-.3 11.4-.8.3-.4.4-8 .3-16.8 0-8.7.3-15.9.7-16 .4 0 5.2-.2 10.6-.4 28.4-1.1 42.9-12.3 43.2-33.5.4-23.1-13.1-33.7-44.8-35.3-2.6-.2-4.9-.2-5-.1zm18.5 22.2c5.2 2.3 8 7 7.7 12.9-.6 9.7-5.8 13.2-21.1 14l-9.8.6v-14.6c0-10.7.3-14.7 1.3-15 3.2-1.2 17.7.2 21.9 2.1zM531.1 140.2c-.8 1.8-3.2 7-5.3 11.6-2.1 4.6-3.8 8.6-3.8 8.9 0 .3-1 2.6-2.3 5.2-1.3 2.5-2.5 5-2.7 5.6-.5 2-8.5 22.8-10 26-.5 1.1-2 5.4-3.5 9.5s-4.6 12.9-6.9 19.5l-4.3 12h11.3c6.2 0 11.6-.4 12-.8.5-.5 2.4-5.4 4.4-11l3.6-10.1 19.3-.1c10.6 0 19.6.2 19.9.5.4.3.8.9.9 1.5.1.5 1.7 5.3 3.5 10.5l3.4 9.5h12.2c9.2 0 12.1-.3 11.8-1.2-.3-.6-1.7-4.7-3.1-9-1.5-4.3-3.1-8.7-3.6-9.8-.5-1.1-2.4-6.3-4.3-11.5-3.4-9.4-14.5-37.7-17.1-43.5-.8-1.7-2.7-5.9-4.3-9.5-1.5-3.6-3.9-8.9-5.2-11.8l-2.4-5.2h-22.1l-1.4 3.2zm15.5 28.6c8.8 23.6 10.5 28.4 10 29-.9.8-26.7.8-27.2 0-.3-.4.2-2.1 1.1-3.8.8-1.6 1.4-3 1.1-3-.2 0 2-6.2 5-13.8 3-7.5 5.4-14.4 5.4-15.2 0-2.6 2.3.7 4.6 6.8zM320.8 430.3c-3.2 4-7.4 9-9.3 11.1-1.9 2.2-4.3 5-5.2 6.4-1 1.3-2.5 3.2-3.4 4.1-.8.9-5.8 6.8-11 13.1-10.4 12.7-12.9 15.7-14.4 17.4-.5.6-2.3 2.8-3.8 4.9-1.6 2.1-3.6 4.5-4.6 5.5-1 .9-3.9 4.4-6.6 7.7-2.6 3.3-6.3 7.9-8.3 10.2l-3.5 4.2-12.9-12.7c-7.1-7-13-12.9-13.3-13.1-.5-.4-26.5 16.1-26.5 16.9 0 .3 6.6 7.4 14.8 15.7 39.9 41.2 40.5 41.7 41.4 39.4.3-.8 10-11.8 16.9-19.2 2-2.1 5.6-6.1 8-8.9 2.4-2.8 5.8-6.6 7.4-8.4 1.7-1.7 6.2-6.7 10-11.1 3.9-4.4 8.2-9.2 9.6-10.7 1.5-1.6 5.1-5.6 8-9 3-3.3 5.9-6.6 6.5-7.2.9-.9 11.3-12.6 22.7-25.3 1.8-2 5.4-6.1 8.1-9 9-9.7 9.7-7.9-7.3-19.3-8.3-5.5-15.6-10-16.3-10-.7.1-3.9 3.3-7 7.3z"/><path d="M168.2 432.4c-.7 1.2-.7 163 0 164.2.4.5 33.9.9 83 .9h82.3l.1-41.5.2-41.5h-7.3c-4 0-7.7.3-8.1.8-.4.4-.7 15.3-.7 33.2 0 23.2-.3 32.5-1.1 32.6-4.4.5-131 .3-131.8-.2-.8-.5-1.1-21-1-65 0-35.4.1-65.1.1-66 .1-2 3.5-3.1 5-1.6.6.6 1.1.7 1.1.1 0-1.1 27-1.2 28.8 0 .6.4 1.2.4 1.2-.1 0-1 21.1-1 22.8.1.7.4 1.2.3 1.2-.1 0-.5 1.5-.9 3.3-.9l3.2.1.3-7.8c.2-5.7 0-7.7-1-7.8-8-.6-81.1-.2-81.6.5zM438.7 462.6c-7.4 1.5-7.6 1.6-12.9 4.4-10.5 5.4-18 13.6-22.5 24.5-2.8 6.7-3.4 10.2-3.8 21.6-.5 16.2 3.2 28.4 11.6 38.2 3.9 4.6 11.8 10.7 14.2 11.1.7.1 1.7.4 2.2.8 1.2.7 7.5 2.4 12.5 3.4 4.1.8 15.2.8 23.3 0 7-.7 19.9-3.5 21-4.6.8-.7 1.2-48.4.3-49.8-.2-.4-5.3-.7-11.3-.7h-10.8l-.1 17.3c-.1 9.5-.4 17.5-.8 17.9-1.4 1.4-15.8.9-20.4-.6-8-2.7-14.9-10.5-16.8-18.7-1.4-6.1-1.6-16.9-.4-22.7 3.3-16.9 13.1-23.9 31.9-23.1 6.1.3 15.6 2.7 17.6 4.5 1.1 1.1 4.6 1.2 4.3.1 0-.4.2-1.4.5-2.2.4-.8 1.7-4.5 3-8.1l2.4-6.7-2.6-1.5c-8.6-4.9-30.7-7.6-42.4-5.1zM544.2 461.7c-22.7 5.8-33.3 15.2-40.3 35.8-2.1 6-1.8 28.5.4 35.6 2.4 7.6 7.9 16.5 13.4 21.7 6.8 6.3 20.9 12.5 26.6 11.6.9-.1 1.7.1 1.7.5 0 .8 13.1.5 17-.4 5.9-1.3 16-4.9 16-5.7 0-.4.7-.8 1.5-.8 3.2 0 13.5-11.7 17-19.2 4.2-9.1 5-13.6 4.8-26.8-.1-13.9-.6-16.4-4.6-25.2-6.4-13.9-20.1-24.3-34.7-26.4-5-.7-17-1.2-18.8-.7zm18.2 21.7c3.7 1.4 12.9 9.4 12.7 11 0 .3.6 2 1.4 3.8 4 9.7 3.7 23.8-.7 34.1-6 13.9-24.6 19.2-37.8 10.8-9.6-6.1-14.8-23.2-11.5-37.8.7-2.9 1-5.5.7-5.8-.3-.3 0-.5.6-.5.7 0 1.1-.3 1-.8-.4-1.4 3.4-7.4 6.5-10.3 6.7-6.1 18-8 27.1-4.5zM613 463.8c-.5.2-.8 1.3-.5 2.5.2 1.2.6 3.5.9 5.2.3 2.4 3.6 16.9 8.1 35.5.2.8.8 3.5 1.4 6 .6 2.5 1.9 7.5 3 11.3 1.1 3.7 1.9 6.8 1.9 7-.1.1.4 1.8 1 3.7.5 1.9 2 6.9 3.2 11 1.2 4.1 3.1 10.2 4.2 13.5l2 6 9.9-.1c5.5 0 10.3-.4 10.8-1 1.2-1.3 11.7-32.1 13.5-39.9 1.1-4.5 2.9-10.6 4.1-13.6.8-2 1.1-3.9.8-4.3-.4-.3-.2-.6.4-.6.6 0 1.4 1.2 1.7 2.7 1.2 4.9 7.6 25.3 12.9 41.2l5.2 15.4h9c5-.1 9.8-.1 10.7-.2 1.5-.1 2.1-1.3 3.3-6.1.1-.3.4-1.2.8-2 .6-1.5 6.5-21.1 7.3-24.3.2-.9.6-2.6.9-3.8.2-1.1.7-2.9 1-3.9.3-1 .8-2.9 1.1-4.2.8-3.5 1.2-5.3 1.5-5.8.1-.3.3-1 .4-1.5l.5-1.5c.1-.3.3-1.2.5-2.1.1-.9 1.5-6.5 3-12.5s2.9-11.8 3.1-12.9c.2-1.1.8-4.3 1.4-7.1.6-2.8 1.3-6.3 1.6-7.9.3-1.6.7-3.2 1-3.6.2-.4-.1-1.1-.7-1.5-1.4-.8-21.9-1.2-22.4-.3-.2.3-.6 1.6-.9 3-1.9 9.6-2.5 12.9-3.1 16.9-.3 2.5-1 6.3-1.5 8.5s-1.1 5.8-1.4 8c-.4 2.2-1.6 7.6-2.7 12s-2.1 8.7-2.3 9.5c-1.4 8.8-1.9 11-2.5 11-.7 0-2.4-5-7.6-21.5-.7-2.2-2.3-7.4-3.5-11.5-1.2-4.1-2.7-9.1-3.3-11-.6-1.9-1.1-4-1.2-4.5-.2-2.4-2.6-9.5-3.3-9.6-3.3-.6-18.5-.2-18.9.5-.6.9-5.2 17-5.7 19.6-.1.8-.8 3.5-1.6 6s-1.5 4.9-1.5 5.5c-.1.5-1.1 4.1-2.4 8-1.3 3.8-2.4 7.4-2.6 8-.1.5-.5 1.7-.8 2.5-.3.8-1.1 3.3-1.8 5.5-1.1 3.6-1.3 3.8-2 1.6-.5-1.2-1.1-3.2-1.3-4.4-.2-1.2-1.2-4.9-2-8.2-.9-3.3-1.9-7.6-2.1-9.5-.3-1.9-.9-5-1.5-6.9-.5-1.8-.9-3.6-.8-4 .2-.7-2.1-11.7-2.9-14.1-.3-.8-.6-2.6-.8-4-.5-5.3-2.8-17-3.4-17.1-1.7-.3-22.3-.4-23.1-.1zM760.9 463.8c-1.3.2-1.5 6.9-1.5 50.9l.1 50.7 10.3-.1c5.6-.1 10.7-.2 11.2-.2.6-.1 1-11.7 1-32.6 0-17.9.3-32.5.8-32.5.4.1 2.1 2 3.8 4.3 1.8 2.3 5.7 7.5 8.8 11.4 3.1 4 5.6 7.7 5.6 8.2 0 .5.4 1.1.9 1.3.8.3 16.5 23.7 16.6 24.8 0 .3 1.3 2.4 2.8 4.7 1.5 2.4 2.7 4.7 2.7 5.1 0 .5 1 2 2.3 3.3 2.2 2.4 5.7 2.7 18.5 2 1.7-.1 1.8-2.6 1.8-50.8l-.1-50.7-10 .1c-5.5.1-10.7.1-11.5.2-1.2.1-1.5 1.1-1.3 4.1.1 2.2.5 4.5.9 5.2.4.6.3.9-.2.6-.5-.4-.9 3-.9 7.8 0 4.6.3 8.4.7 8.4.3 0 .4.8.2 1.7-.8 3.5-.9 14.3-.1 14.3.5 0 .5.4.2 1-.9 1.4-1 13.4-.1 14.8.4.7.4 1.2-.1 1.2-.4 0-1.9-1.7-3.3-3.8-3.9-5.8-20.4-28.7-23.6-32.7-18.8-23.5-17.9-22.8-27.3-22.9-4.3-.1-8.4 0-9.2.2zM167.9 759.4c-.4 5.8-.1 163.8.4 164.2.8.9 163.1.9 164.4.1.6-.4 1-30.8.9-82.9l-.1-82.3-82.7-.1c-57.6 0-82.8.3-82.9 1zm149.7 81.4c0 38.3-.3 66.5-.8 66.8-1.2.8-131.8.7-132.5 0-.5-.4-.8-126.3-.4-132.1.1-.8 21-1.1 66.9-1h66.7l.1 66.3zM541.5 788.7c-16.9 4.1-27.1 11.9-35.1 26.8-5 9.2-6.5 29.8-3.2 42 6.5 23.9 24.7 36.9 50.5 36.1 30.2-1 48.7-21 48.5-52.4 0-7.5-.6-12.3-1.4-12.8-.4-.3-.6-1-.2-1.5 1.3-2.2-6.2-17.9-11.3-23.5-9.1-9.8-20.4-14.5-35.8-14.9-5.5-.2-10.9 0-12 .2zm22.7 22.6c10.2 6 14.3 15 14 31.2-.2 18.3-9.3 30-24.1 31.1-11.1.7-20.3-4.2-25.1-13.6-3.2-6.2-3.4-7.4-3.4-19.5-.1-9.8.2-11.6 2.5-16.5 5.3-11.2 13.3-16.1 25.6-15.5 4.5.2 7.5 1 10.5 2.8zM394 791.6c0 2.8 11.6 34.2 22.7 61.4 6.4 15.7 6.7 16.4 12.6 29.2l4.6 9.8h21.8l3.8-8.3c2.1-4.5 4.5-9.8 5.3-11.7.7-1.9 2-4.9 2.8-6.5 2-4.5 13.4-32.8 13.9-34.5.2-.8 1.8-5.3 3.5-10 7.2-19.3 10.8-30 10.2-30.3-.4-.2-5.8-.3-12.1-.3l-11.3.1-5.3 15.2c-2.9 8.4-5 15.3-4.7 15.3.2 0 0 .6-.5 1.2-.5.7-2.4 5.6-4.2 10.8-1.8 5.2-3.6 10.4-4.1 11.5-1.6 3.8-5.8 15-6.4 16.7-.3 1-1 1.8-1.6 1.8-.6 0-1.3-.8-1.6-1.8-.3-.9-1-2.6-1.4-3.7-.5-1.1-2-5.4-3.5-9.5s-3.3-9.1-4-11c-2-5.3-2.8-7.4-3.1-8.5-.2-1.1-5.2-15.1-6.1-17.5-.8-1.8-.6-1.5-2.2-7-.7-2.5-1.3-4.7-1.4-5 0-.3-.8-2.3-1.8-4.5l-1.8-4-12.1-.1c-9.1 0-12 .2-12 1.2zM609.5 791c-.2.3-.4 4.7-.4 9.7l-.1 9.2 14.6-.1c8 0 14.8.3 15.2.7.4.4.8 18.3.9 39.8.1 21.6.2 39.8.2 40.4.1 1 3.1 1.3 11.4 1.3h11.3l.1-40.5c0-22.3.3-40.8.6-41.1.3-.3 7.2-.5 15.4-.6h14.8l-.2-8.6c0-4.8-.2-9.2-.2-9.8-.1-1.1-82.9-1.6-83.6-.4zM707.9 791.4c-.1 1.3-.1 98.8 0 99.9.1.4 16.2.6 35.9.5l35.7-.3.1-8.8c.1-7.3-.1-9-1.4-9.5-.9-.3-11.9-.6-24.3-.6-22.3.1-22.7 0-23.1-2-.3-1.7-.2-13.9.1-20.7.1-1.5 2.2-1.6 19.2-1.5 10.5 0 19.5-.2 20.1-.5.8-.5 1.3-8.5.9-16.4-.1-2-.7-2.1-19.1-2-10.5 0-19.6-.2-20.2-.6-1.4-.9-1.7-17.8-.3-18.7.6-.4 10.9-.7 23-.7h21.9l.1-9.3c0-5-.2-9.3-.5-9.4-.3 0-15.7-.2-34.2-.3-23.3-.1-33.8.2-33.9.9z"/></svg>