<?xml version="1.0" standalone="no"?>
<!DOCTYPE svg PUBLIC "-//W3C//DTD SVG 20010904//EN"
 "http://www.w3.org/TR/2001/REC-SVG-20010904/DTD/svg10.dtd">
<svg version="1.0" xmlns="http://www.w3.org/2000/svg"
 width="700.000000pt" height="700.000000pt" viewBox="0 0 700.000000 700.000000"
 preserveAspectRatio="xMidYMid meet">
<metadata>
Created by potrace 1.11, written by Peter Selinger 2001-2013
</metadata>
<g transform="translate(0.000000,700.000000) scale(0.100000,-0.100000)"
fill="#000000" stroke="none">
<path d="M3219 6102 c-30 -21 -124 -90 -209 -153 -85 -63 -171 -126 -190 -139
-19 -13 -37 -27 -40 -30 -3 -3 -88 -67 -188 -140 -101 -74 -233 -171 -292
-215 -60 -44 -187 -137 -282 -207 -95 -70 -344 -254 -553 -408 -209 -154 -461
-340 -560 -412 -99 -73 -186 -138 -193 -145 -7 -7 -18 -13 -24 -13 -5 0 -8 -4
-6 -10 3 -10 533 -320 547 -320 5 0 11 -3 13 -7 2 -5 23 -19 48 -32 25 -14 72
-41 106 -61 l61 -37 24 20 c13 10 46 39 73 63 l48 45 -22 52 c-13 29 -38 86
-57 127 -19 41 -46 100 -60 130 -13 30 -48 107 -77 170 -30 63 -52 117 -50
119 2 2 94 -49 206 -114 112 -65 228 -131 258 -148 30 -17 64 -36 75 -44 24
-16 40 -17 57 0 7 7 94 84 193 172 99 88 200 179 224 202 25 23 47 40 49 39 2
-2 -17 -102 -42 -222 -25 -121 -47 -230 -50 -244 -2 -14 -12 -58 -20 -98 -9
-40 -16 -75 -16 -77 0 -1 15 -10 33 -20 17 -9 41 -22 52 -28 11 -7 125 -72
253 -146 128 -74 231 -135 229 -137 -4 -5 -58 -12 -132 -19 -38 -3 -86 -7
-105 -10 -19 -2 -64 -7 -100 -10 -36 -4 -81 -8 -100 -10 -19 -2 -64 -7 -100
-10 -90 -8 -117 -14 -118 -28 -1 -14 -10 -62 -18 -97 -19 -77 -22 -71 83 -132
215 -124 1323 -763 1397 -806 91 -53 63 -62 251 77 72 53 162 120 200 148 39
28 129 95 200 147 72 53 139 102 150 110 104 76 251 188 253 194 1 5 -12 16
-30 25 -18 9 -55 29 -83 45 -409 238 -380 218 -381 253 0 44 24 191 33 200 6
6 100 -43 193 -100 20 -13 224 -130 280 -161 25 -14 78 -45 118 -69 40 -23 79
-40 85 -38 29 12 297 215 297 225 0 4 -17 16 -38 28 -20 11 -98 55 -172 98
-74 44 -151 88 -170 99 -108 60 -534 308 -539 313 -3 2 2 48 9 102 7 53 14
106 15 117 1 11 4 20 6 20 6 -1 83 -45 409 -233 157 -91 301 -174 320 -184 19
-11 108 -62 197 -114 89 -52 167 -94 173 -94 9 0 114 73 130 90 3 3 34 27 70
52 36 26 76 56 89 66 l24 19 -79 45 c-43 25 -124 71 -179 103 -55 32 -116 67
-135 78 -19 10 -72 41 -118 68 -45 27 -87 49 -92 49 -6 0 -10 5 -10 10 0 6 -4
10 -9 10 -5 0 -83 43 -173 95 -89 52 -252 145 -360 207 -187 107 -197 115
-198 143 0 30 27 205 33 211 2 3 136 -73 347 -196 36 -21 196 -113 355 -205
160 -92 346 -200 415 -240 69 -40 143 -83 165 -95 22 -12 65 -37 95 -55 30
-18 75 -44 100 -57 l45 -25 192 141 c106 78 192 143 193 146 0 3 -12 13 -27
21 -16 9 -320 185 -678 391 -357 206 -663 383 -680 392 -16 9 -46 26 -65 37
-19 12 -152 89 -295 171 -143 83 -271 157 -285 166 -14 9 -27 17 -30 17 -5 0
-48 26 -228 132 -41 24 -75 43 -77 43 -2 0 -61 34 -131 76 -71 42 -149 87
-174 101 -25 14 -118 67 -207 119 -89 52 -164 94 -166 94 -2 0 -28 -17 -58
-38z"/>
<path d="M6191 3981 l-34 -28 0 -524 1 -525 -28 -16 c-99 -57 -83 -205 26
-238 28 -8 28 -8 4 -9 -43 -2 -88 -36 -95 -73 -6 -36 -11 -677 -6 -798 4 -69
21 -129 39 -131 4 0 26 -2 49 -4 24 -1 62 -15 90 -31 26 -16 56 -32 65 -36 17
-7 19 -3 34 82 6 37 6 504 0 625 -2 39 -5 120 -6 180 -3 136 -13 159 -78 179
-27 8 -38 15 -25 15 30 1 93 65 94 96 1 14 2 31 3 38 4 24 -34 86 -64 103
l-30 18 -2 552 -3 553 -34 -28z"/>
<path d="M1297 3593 c-11 -11 -8 -721 3 -728 6 -3 65 -22 133 -41 371 -106
834 -313 1232 -552 420 -251 793 -539 1038 -799 27 -29 57 -53 67 -53 9 0 57
46 106 102 105 121 254 272 379 383 49 44 99 88 110 98 44 41 286 229 391 304
241 173 609 384 842 483 57 24 106 48 109 54 10 15 10 719 0 739 -5 11 -16 17
-25 15 -10 -3 -120 -79 -245 -169 -125 -90 -241 -173 -257 -184 -16 -11 -127
-91 -247 -177 -120 -86 -321 -232 -448 -323 -554 -398 -628 -452 -683 -492
-31 -23 -63 -42 -70 -42 -7 -1 -30 10 -52 24 -22 14 -64 38 -92 54 -29 16
-174 100 -323 186 -148 87 -289 168 -312 181 -23 13 -93 54 -155 90 -62 37
-126 74 -143 84 -16 9 -139 81 -273 158 -134 78 -248 142 -253 142 -5 0 -9 5
-9 10 0 6 -4 10 -9 10 -4 0 -140 77 -302 171 -339 198 -349 203 -409 237 -25
13 -49 28 -54 33 -12 11 -40 12 -49 2z"/>
</g>
</svg>
