<?xml version="1.0" encoding="utf-8"?>
<!-- Generator: Adobe Illustrator 22.0.1, SVG Export Plug-In . SVG Version: 6.00 Build 0)  -->
<svg version="1.1" id="Logo_1_" xmlns="http://www.w3.org/2000/svg" xmlns:xlink="http://www.w3.org/1999/xlink" x="0px" y="0px"
	 viewBox="0 0 672 124" style="enable-background:new 0 0 672 124;" xml:space="preserve">
<style type="text/css">
	.st0{fill-rule:evenodd;clip-rule:evenodd;}
	.st1{enable-background:new    ;}
	.st2{fill:none;stroke:#000000;stroke-linecap:round;stroke-linejoin:round;stroke-miterlimit:1.5;}
	.st3{font-family:'MrEavesModOT-Book';}
	.st4{font-size:56.0742px;}
	.st5{letter-spacing:4;}
</style>
<g id="Layer_1_1_">
	<g>
		<polygon class="st0" points="124.9,56.4 133.3,50.3 68.4,12.9 13.1,53.6 29.9,63.2 32.9,60.5 27,47.6 39.4,54.7 49.9,45.3 
			47.1,59.1 59.4,66.2 45.3,67.6 44.5,71.6 78,90.9 98.9,75.6 88,69.3 88.7,64.8 89,64.3 103.1,72.5 109.8,67.6 89.9,56.1 90.6,51 
			114,64.4 120.7,59.5 91.8,42.9 92.5,37.7 		"/>
	</g>
</g>
<g id="Layer2_1_" class="st1">
	<g id="Layer_13">
		<g>
			<path class="st0" d="M78.2,97.2L26.8,67.4V82c8,2,17.6,5.9,27.4,11.6c10.4,6,19,12.8,24.8,19c4.5-5.6,10.8-11.5,18.2-17.1
				c7.8-5.8,15.7-10.2,22.5-12.9V67.4L78.2,97.2z"/>
		</g>
		<g>
			<path class="st2" d="M78.2,97.2L26.8,67.4V82c8,2,17.6,5.9,27.4,11.6c10.4,6,19,12.8,24.8,19c4.5-5.6,10.8-11.5,18.2-17.1
				c7.8-5.8,15.7-10.2,22.5-12.9V67.4L78.2,97.2z"/>
		</g>
	</g>
</g>
<g id="Layer3_1_" class="st1">
	<g id="Layer_14">
		<g>
			<polygon class="st0" points="129.7,59.3 129.7,84.4 131.2,84.4 131.2,58.1 			"/>
		</g>
	</g>
	<g id="Layer_15">
		<g>
			<path class="st0" d="M130.5,81.6c-1.6,0-2.8,1.3-2.8,2.8c0,1.5,1.3,2.8,2.8,2.8c1.6,0,2.8-1.3,2.8-2.8
				C133.3,82.8,132,81.6,130.5,81.6z"/>
		</g>
	</g>
	<g id="Layer_16">
		<g>
			<path class="st0" d="M130.5,87.2c-1.6,0-2.8,0.4-2.8,2s5.6,1.5,5.6,0S132,87.2,130.5,87.2z"/>
		</g>
	</g>
	<g id="Layer_17">
		<g>
			<path class="st0" d="M133.3,89.2h-5.6c0,0-0.3,14.6,0,17.6c0.2,2.5,1.7,1.7,2.4,1.8c0.6,0.1,1.3,0.6,1.6,0.8
				c0.6,0.4,1.4,1.3,1.6,0.3C134.2,106.2,133.3,89.2,133.3,89.2z"/>
		</g>
	</g>
</g>
<g id="CAP_x2C__GOWN_x2C__VOTE_x21_">
	<text transform="matrix(1 0 0 1 149.0073 77.3594)" class="st3 st4 st5">CAP, GOWN, VOTE!</text>
</g>
</svg>
