<?xml version="1.0" encoding="UTF-8" standalone="no"?><!DOCTYPE svg PUBLIC "-//W3C//DTD SVG 1.1//EN" "http://www.w3.org/Graphics/SVG/1.1/DTD/svg11.dtd"><svg width="100%" height="100%" viewBox="0 0 432 432" version="1.1" xmlns="http://www.w3.org/2000/svg" xmlns:xlink="http://www.w3.org/1999/xlink" xml:space="preserve" xmlns:serif="http://www.serif.com/" style="fill-rule:evenodd;clip-rule:evenodd;stroke-linejoin:round;stroke-miterlimit:1.41421;"><path id="Mortarboard" d="M378.067,200.099l-157.542,-157.542l-157.542,157.542l157.542,157.541l157.542,-157.541Z"/><g id="Vote"><path d="M136.8,178.6c1.5,-2.4 6.1,-8.4 10.4,-8.4c7.1,0 11.7,4.3 11.7,5.4c-10.6,13.6 -27.6,49.1 -31.4,62.4c0,0 -1.3,1.2 -4.2,1.2c-5,0 -15.4,-2.9 -16.4,-10.7c-1.3,-9.5 -4.5,-51.5 -3.1,-58.7c0.2,-0.9 1.4,-2.6 3.4,-2.6c5.1,0 16.4,2.6 16.4,6.3c-0.8,15.6 -0.4,26.7 0.4,37l1,0c1.7,-3.9 5.9,-16.8 12.1,-28c0.7,-1.1 -1.6,-1.8 -0.3,-3.9Z" style="fill:#fff;fill-rule:nonzero;"/><path d="M180.3,171.8c2.5,0.4 3,1.1 4.2,2c0,0 3.9,-1.4 8.3,-1.4c19.8,0 24.8,9.7 24.8,20.8c0,11.2 -6.6,42.4 -35.5,42.4c-21,0 -29.2,-14.7 -29.2,-27.1c0,-19.3 14,-34.5 27.4,-36.7Zm-0.8,52.4c9.4,0 14.4,-28 15,-33.6c0.4,-4.1 -0.1,-8.3 -2.9,-8.3c-4.6,0 -6.6,8.2 -8,12.8c-0.3,1 -0.8,1.6 -1.7,1.2c-0.4,-0.2 -2.3,-1.2 -2.7,-1.6c0.1,0 -3.2,6.1 -4.3,15.9c-0.8,7.6 0.6,13.6 4.6,13.6Z" style="fill:#fff;fill-rule:nonzero;"/><path d="M221.9,179.6c7.8,-1.8 17,-2.9 25.3,-3.5c0.9,-2.3 1.9,-4.4 2.9,-6.1c2.6,-4.2 14.3,2.8 16.4,4l-0.4,1.1l3.1,-0.2c5.6,-0.3 10.3,0 11.5,0.8c0.6,0.4 5.6,7 5.6,8.9c0,1.8 -1.2,2.5 -3.2,2.5c-5.6,0.1 -13.2,0.7 -21.3,1.6c-2.9,10.8 -5,20.7 -7.6,34.2c0.7,0.5 1.4,0.8 1.7,1.3c0.8,1.9 -4.9,12.3 -4.9,12.3c-1.3,2.4 -18.2,-2.5 -19.2,-3.4c2.3,-11.3 6,-27.8 10.2,-41.8c-4.5,0.7 -8.7,1.4 -12.5,2.2c-3.8,1 -10.1,-13.3 -7.6,-13.9Z" style="fill:#fff;fill-rule:nonzero;"/><path d="M287.9,178.5c5,-1.2 6.3,-1.2 11.7,-2.2c1.4,-3.2 2.9,-6.1 4.5,-8.3c4.1,0.3 12.4,2.3 14.6,3.5l-0.8,1.8l11.3,-1.6c3.2,-0.4 8.4,-3.2 11.9,-0.8c0.6,0.4 3.1,8.8 3.1,9.5c0,0.6 -7.5,5 -9,5.6c-4.4,1.7 -7.6,1.4 -7.9,0.3c-0.3,-1 -0.6,-2 -0.6,-2c-5.2,0.3 -9.2,0.5 -13.5,0.9c-1.2,3.7 -2.3,7.5 -3.3,11.3l2.4,-0.2c5.6,-0.3 9.8,-1.6 11.2,-0.7c2.2,1.4 4.7,8 4.7,8.7c0,0.6 -0.2,1.8 -2.1,1.8c-5.9,0.1 -12.5,0.6 -18.7,1.3c-0.8,3.9 -1.5,7.9 -2.1,11.8c14.1,-2.7 25.1,-4.5 31.9,-4.3c2,0.1 8.8,12.2 4.3,12.2c-10.1,0.2 -22.1,1.4 -38,3.5l-0.6,4.9c-0.3,2 -11.2,-1.1 -15.5,-2.7l-0.8,0.2c-3.9,0.5 -9.4,-8.3 -6.8,-8.8c2.4,-0.4 4.8,-0.9 7.1,-1.3c0.7,-4.2 1.5,-8.7 2.4,-13.3c-0.2,0.1 -0.3,0.1 -0.4,0.1c-4,0.5 -8.7,-7.7 -6.6,-8.7c1.4,-0.7 5.1,-1.4 9.7,-2.2c1,-3.9 2.1,-7.6 3.3,-11.3c-1.7,0.2 -1.5,0 -2.3,0c-2.3,0.4 -7.5,-8.4 -5.1,-9Z" style="fill:#fff;fill-rule:nonzero;"/></g><g id="Tassle"><path d="M220.5,192.3c4.3,0 7.8,3.5 7.8,7.8c0,4.3 -3.5,7.8 -7.8,7.8c-4.3,0 -7.8,-3.5 -7.8,-7.8c0,-4.3 3.5,-7.8 7.8,-7.8m0,-2.8c-5.8,0 -10.6,4.8 -10.6,10.6c0,5.8 4.8,10.6 10.6,10.6c5.8,0 10.6,-4.8 10.6,-10.6c0,-5.8 -4.7,-10.6 -10.6,-10.6Z" style="fill-rule:nonzero;"/><path d="M228.3,200.1c0,-4.3 -3.5,-7.8 -7.8,-7.8c-4.3,0 -7.8,3.5 -7.8,7.8c0,3.5 2.2,6.4 5.4,7.4l0,147.7l2.5,2.4l2.5,-2.4l0,-147.7c3,-1 5.2,-3.9 5.2,-7.4Z" style="fill:#21c2de;fill-rule:nonzero;"/><g><path d="M231.3,397.1l-19.3,0l-19.6,0l5.9,9.6l-5.9,9.7l19.6,0l19.3,-19.3Z" style="fill:#ff4c4c;fill-rule:nonzero;"/><path d="M212,394.3l19.3,0l0,-43.2l-10.8,10.7l-10.7,-10.7l0,43.2l2.2,0Z" style="fill:#21c2de;fill-rule:nonzero;"/></g></g><g id="Red_Border"><path d="M220.5,33.4l166.8,166.7l-153.2,153.2l0,3l156.1,-156.2l-169.7,-169.7l-6,6.1l1.5,1.4l4.5,-4.5Z" style="fill-rule:nonzero;"/><path d="M207,353.3l-153.2,-153.2l4.2,-4.2l-1.4,-1.5l-5.8,5.7l156.2,156.2l0,-3Z" style="fill-rule:nonzero;"/></g><g id="Cap_Gown"><path d="M55.6,171.8c-2.4,2.4 -2.9,6.3 -0.3,9c2.3,2.3 6.1,3 9.2,-0.1c2.1,-2.1 2.6,-5.3 1.2,-7.8l5.8,-2.8c4.1,5.7 2.3,11.8 -2.1,16.2c-5.1,5.1 -13.7,5.9 -19.6,0c-5.6,-5.6 -5,-13.6 0.6,-19.3c4.4,-4.4 9.5,-5.3 14.4,-2.6l-2.3,6.5c-2.4,-1.8 -5.1,-0.9 -6.9,0.9Z" style="fill-rule:nonzero;"/><path d="M88.9,156.8l-8,8l2.3,6.3l-5.5,5.5l-9.7,-26l6.5,-6.5l26.1,9.7l-5.5,5.5l-6.2,-2.5Zm-10,2.6l4.6,-4.6l-6.8,-2.6l-0.3,0.3l2.5,6.9Z" style="fill-rule:nonzero;"/><path d="M107.7,146.6l-5.1,5.1l-17.8,-17.8l10.8,-10.9c5.2,-5.2 9.9,-4.6 13.4,-1.1c2.6,2.6 3.6,8.5 -0.4,12.7l-6.5,6.6l5.6,5.4Zm-13,-12.9l2.9,2.9l5.8,-5.8c1.9,-1.9 -0.9,-5.1 -3,-3l-5.7,5.9Z" style="fill-rule:nonzero;"/><path d="M131.4,97.8l-3.2,6c-2.2,-1 -4.7,0.2 -6.3,1.8c-2.7,2.7 -2.9,6.1 -0.2,8.8c3.1,3.1 7.3,2.3 9.6,-0.1c1.5,-1.5 2.3,-3.7 1.5,-5.7l-4.6,4.6l-3.8,-3.8l10,-10c0.7,0.5 1.3,1.1 1.9,1.6c5.5,5.5 5.1,13.1 -0.5,18.7c-5.7,5.7 -13.9,5.7 -19.5,0.1c-6.1,-6.1 -4.9,-13.6 0.6,-19.2c4.5,-4.5 9.6,-5.5 14.5,-2.8Z" style="fill-rule:nonzero;"/><path d="M137.8,98.7c-5.9,-5.9 -5.9,-13.4 -0.2,-19.1c5.7,-5.7 13.4,-5.7 19.1,-0.1c5.9,5.9 5.9,13.4 0.2,19.1c-5.8,5.8 -13.4,5.8 -19.1,0.1Zm4.7,-14.1c-2.6,2.6 -2.6,5.8 0.2,8.6c3,3 6.5,3.3 9.2,0.6c2.6,-2.6 2.7,-5.9 -0.1,-8.7c-3,-3 -6.6,-3.2 -9.3,-0.5Z" style="fill-rule:nonzero;"/><path d="M177.1,62.3l-6.8,-13.9l5.5,-5.5l11.4,24.4l-4,3.9l-12.7,-5.9l5.9,12.7l-3.9,3.9l-24.4,-11.4l5.5,-5.5l13.9,6.8l-7,-13.8l2.8,-2.8l13.8,7.1Z" style="fill-rule:nonzero;"/><path d="M213.6,40.8l-4.7,4.7l-18.1,-1.8l9.9,9.9l-5.1,5.1l-17.9,-17.9l4.7,-4.7l18.1,1.7l-9.9,-9.9l5.1,-5.1l17.9,18Z" style="fill-rule:nonzero;"/></g></svg>