<svg id="Logo" xmlns="http://www.w3.org/2000/svg" viewBox="0 0 672 124"><defs><style>.cls-1,.cls-4{fill:#fff;}.cls-1{fill-rule:evenodd;}.cls-2{isolation:isolate;}.cls-3{fill:none;stroke:#fff;stroke-linecap:round;stroke-linejoin:round;}.cls-4{font-size:56.07px;font-family:MrEavesModOT-Book, Mr Eaves Mod OT;letter-spacing:0.08em;}.cls-5{letter-spacing:0.02em;}.cls-6{letter-spacing:0.06em;}.cls-7{letter-spacing:0.08em;}.cls-8{letter-spacing:0.05em;}.cls-9{letter-spacing:0.04em;}</style></defs><title>Artboard 1</title><g id="Layer_1" data-name="Layer 1"><polygon class="cls-1" points="124.94 56.41 133.28 50.28 68.41 12.9 13.15 53.57 29.86 63.2 32.9 60.48 27.04 47.57 39.41 54.7 49.93 45.33 47.06 59.11 59.44 66.23 45.3 67.62 44.47 71.61 78.01 90.94 98.88 75.59 88.03 69.34 88.68 64.79 88.95 64.31 103.12 72.47 109.79 67.56 89.91 56.11 90.64 50.97 114.03 64.44 120.7 59.53 91.8 42.88 92.53 37.74 124.94 56.41"/></g><g id="Layer2" class="cls-2"><g id="Layer_13" data-name="Layer 13"><path class="cls-1" d="M78.19,97.17,26.79,67.38V82A110,110,0,0,1,54.18,93.58c10.36,6,19,12.75,24.79,19a102.08,102.08,0,0,1,18.2-17.07,100.6,100.6,0,0,1,22.52-12.92V67.38Z"/><path class="cls-3" d="M78.19,97.17,26.79,67.38V82A110,110,0,0,1,54.18,93.58c10.36,6,19,12.75,24.79,19a102.08,102.08,0,0,1,18.2-17.07,100.6,100.6,0,0,1,22.52-12.92V67.38Z"/></g></g><g id="Layer3" class="cls-2"><g id="Layer_14" data-name="Layer 14"><polygon class="cls-1" points="129.72 59.28 129.72 84.36 131.22 84.36 131.22 58.11 129.72 59.28"/></g><g id="Layer_15" data-name="Layer 15"><path class="cls-1" d="M130.47,81.56a2.81,2.81,0,1,0,2.81,2.8A2.8,2.8,0,0,0,130.47,81.56Z"/></g><g id="Layer_16" data-name="Layer 16"><path class="cls-1" d="M130.47,87.17c-1.55,0-2.81.43-2.81,2s5.62,1.55,5.62,0S132,87.17,130.47,87.17Z"/></g><g id="Layer_17" data-name="Layer 17"><path class="cls-1" d="M133.28,89.15h-5.62s-.29,14.59,0,17.59c.24,2.54,1.68,1.66,2.36,1.77a5,5,0,0,1,1.61.8c.64.36,1.37,1.34,1.65.26C134.16,106.22,133.28,89.15,133.28,89.15Z"/></g></g><g id="CAP_GOWN_VOTE_" data-name="CAP, GOWN, VOTE!"><text class="cls-4" transform="translate(149.01 77.36)">CA<tspan class="cls-5" x="74.58" y="0">P</tspan><tspan x="101.44" y="0">, G</tspan><tspan class="cls-6" x="172.37" y="0">O</tspan><tspan class="cls-7" x="214.82" y="0">WN, </tspan><tspan class="cls-8" x="333.92" y="0">V</tspan><tspan class="cls-9" x="368.85" y="0">O</tspan><tspan x="409.95" y="0">TE!</tspan></text></g></svg>