<?xml version="1.0" encoding="UTF-8" standalone="no"?><!DOCTYPE svg PUBLIC "-//W3C//DTD SVG 1.1//EN" "http://www.w3.org/Graphics/SVG/1.1/DTD/svg11.dtd"><svg width="100%" height="100%" viewBox="0 0 128 128" version="1.1" xmlns="http://www.w3.org/2000/svg" xmlns:xlink="http://www.w3.org/1999/xlink" xml:space="preserve" xmlns:serif="http://www.serif.com/" style="fill-rule:evenodd;clip-rule:evenodd;stroke-linecap:round;stroke-linejoin:round;stroke-miterlimit:1.5;"><path d="M39.267,66.266l0.715,-3.439l12.164,-1.196l-10.643,-6.145l2.466,-11.875l-9.052,8.073l-10.644,-6.145l5.047,11.132l-2.621,2.339l-14.372,-8.297l47.543,-35.052l55.803,32.218l-7.175,5.287l-27.886,-16.1l-0.625,4.434l24.864,14.355l-5.741,4.231l-20.119,-11.615l-0.631,4.43l17.103,9.875l-5.74,4.231l-12.183,-7.034l-0.236,0.41l-0.559,3.926l9.331,5.387l-17.952,13.231l-28.857,-16.661Z" style="fill-rule:nonzero;"/><g id="Layer2"><path d="M103.982,75.752c-5.883,2.317 -12.656,6.132 -19.372,11.141c-6.412,4.781 -11.795,9.923 -15.662,14.71c-4.968,-5.407 -12.413,-11.258 -21.326,-16.404c-8.377,-4.837 -16.645,-8.239 -23.56,-9.957l0,-12.62l44.221,25.672l35.699,-25.672l0,13.13Z" style="stroke:#000;stroke-width:1px;"/></g><g id="Layer3"><path d="M113.904,54.626l-1.299,1.012l0,21.618l1.299,0l0,-22.63Z"/><circle cx="113.255" cy="77.256" r="2.418"/><path d="M113.255,79.674c1.334,0 2.418,0.375 2.418,1.71c0,1.334 -4.836,1.334 -4.836,0c0,-1.335 1.083,-1.71 2.418,-1.71Z"/><path d="M115.673,81.384l-4.836,0c0,0 -0.248,12.576 0,15.166c0.209,2.184 1.444,1.431 2.03,1.523c0.554,0.088 1.131,0.542 1.389,0.688c0.548,0.312 1.175,1.154 1.417,0.227c0.754,-2.894 0,-17.604 0,-17.604Z"/></g></svg>