<?xml version="1.0" encoding="utf-8"?>
<!-- Generator: Adobe Illustrator 22.1.0, SVG Export Plug-In . SVG Version: 6.00 Build 0)  -->
<svg version="1.1" id="Layer_1" xmlns="http://www.w3.org/2000/svg" xmlns:xlink="http://www.w3.org/1999/xlink" x="0px" y="0px"
	 viewBox="0 0 200 260" style="enable-background:new 0 0 200 260;" xml:space="preserve">
<style type="text/css">
	.st0{fill:#FFFFFF;stroke:#000000;stroke-miterlimit:10;}
	.st1{fill:#FFFFFF;stroke:#000000;stroke-width:4;stroke-miterlimit:10;}
	.st2{fill:none;stroke:#000000;stroke-width:4;stroke-miterlimit:10;}
	.st3{fill:#FF4C4D;}
	.st4{stroke:#000000;stroke-miterlimit:10;}
</style>
<path class="st0" d="M216.1,37.1"/>
<path class="st1" d="M3.8,3.5"/>
<path class="st1" d="M171.3,3.5"/>
<path class="st2" d="M196.6,28.8"/>
<polyline class="st2" points="53.1,48.2 53.1,67 15.5,67 15.5,29.5 34.3,29.5 "/>
<polyline class="st2" points="53.1,130 53.1,148.7 15.5,148.7 15.5,111.3 34.3,111.3 "/>
<path class="st1" d="M34.3,111.3"/>
<rect x="15.5" y="193" class="st2" width="37.6" height="37.5"/>
<g>
	<path d="M84.2,61.4c-4.1,0-7.3-1.1-9.5-3.4c-2.2-2.3-3.3-5.6-3.3-9.8c0-2.1,0.3-4,1-5.6c0.7-1.7,1.6-3,2.7-4.2
		c1.2-1.1,2.5-2,4.1-2.6c1.6-0.6,3.3-0.9,5.2-0.9c1.1,0,2.1,0.1,2.9,0.2s1.7,0.3,2.3,0.6c0.7,0.2,1.2,0.4,1.7,0.6
		c0.4,0.2,0.8,0.4,1,0.5l-1.7,4.6c-0.8-0.4-1.7-0.8-2.7-1.1c-1-0.3-2.2-0.4-3.5-0.4c-0.9,0-1.7,0.1-2.6,0.4
		c-0.8,0.3-1.6,0.8-2.2,1.4c-0.6,0.6-1.2,1.5-1.6,2.5c-0.4,1-0.6,2.3-0.6,3.7c0,1.2,0.1,2.3,0.4,3.3c0.3,1,0.7,1.9,1.2,2.6
		c0.6,0.7,1.3,1.3,2.3,1.7c0.9,0.4,2.1,0.6,3.4,0.6c0.8,0,1.6,0,2.2-0.1c0.7-0.1,1.2-0.2,1.8-0.3c0.5-0.1,1-0.3,1.4-0.5
		c0.4-0.2,0.7-0.3,1.1-0.5l1.6,4.6c-0.8,0.5-1.9,0.9-3.4,1.3C87.8,61.2,86.1,61.4,84.2,61.4z"/>
	<path d="M114.5,60.9c-0.3-0.9-0.6-1.8-0.9-2.7c-0.3-0.9-0.7-1.9-1-2.8h-9.9c-0.3,0.9-0.6,1.9-1,2.8c-0.3,0.9-0.6,1.8-0.9,2.7h-6
		c1-2.7,1.9-5.3,2.7-7.6c0.9-2.3,1.7-4.5,2.5-6.6c0.8-2.1,1.6-4,2.4-5.9c0.8-1.8,1.6-3.6,2.5-5.4h5.4c0.8,1.8,1.7,3.6,2.5,5.4
		c0.8,1.8,1.6,3.8,2.5,5.9c0.8,2.1,1.7,4.2,2.5,6.6c0.9,2.3,1.8,4.9,2.7,7.6H114.5z M107.6,41.2c-0.1,0.4-0.3,0.9-0.6,1.5
		c-0.2,0.6-0.5,1.4-0.8,2.2c-0.3,0.8-0.7,1.8-1.1,2.8s-0.8,2.1-1.2,3.2h7.3c-0.4-1.1-0.8-2.2-1.1-3.2c-0.4-1-0.7-1.9-1-2.8
		c-0.3-0.8-0.6-1.6-0.9-2.2C107.9,42.1,107.7,41.6,107.6,41.2z"/>
	<path d="M131.5,35.2c3.8,0,6.7,0.7,8.7,2c2,1.3,3,3.5,3,6.5c0,3.1-1,5.3-3.1,6.6c-2.1,1.4-5,2-8.8,2h-1.8v8.5h-5.7V35.8
		c1.2-0.2,2.6-0.4,4-0.5C129.2,35.2,130.5,35.2,131.5,35.2z M131.9,40.1c-0.4,0-0.8,0-1.2,0s-0.8,0-1,0.1v7.3h1.8
		c2,0,3.5-0.3,4.5-0.8c1-0.5,1.5-1.5,1.5-3c0-0.7-0.1-1.3-0.4-1.8c-0.3-0.5-0.6-0.8-1.1-1.1c-0.5-0.3-1.1-0.5-1.7-0.6
		C133.5,40.1,132.7,40.1,131.9,40.1z"/>
</g>
<g>
	<path d="M85,121.6c-2.7,0-4.6,0.7-5.8,2.2c-1.2,1.5-1.8,3.5-1.8,6.1c0,1.2,0.1,2.4,0.4,3.4s0.7,1.9,1.3,2.6
		c0.6,0.7,1.3,1.3,2.2,1.7c0.9,0.4,1.9,0.6,3.1,0.6c0.6,0,1.2,0,1.6,0c0.5,0,0.9-0.1,1.2-0.1v-8.8H93v12.6c-0.7,0.3-1.8,0.6-3.3,0.9
		c-1.5,0.3-3.4,0.5-5.6,0.5c-1.9,0-3.6-0.3-5.2-0.9c-1.6-0.6-2.9-1.4-4-2.6c-1.1-1.1-2-2.5-2.6-4.1c-0.6-1.6-0.9-3.5-0.9-5.6
		c0-2.1,0.3-4,1-5.6c0.7-1.6,1.6-3,2.7-4.2c1.2-1.1,2.5-2,4.1-2.6c1.6-0.6,3.2-0.9,5-0.9c1.2,0,2.3,0.1,3.3,0.2
		c1,0.2,1.8,0.3,2.5,0.6c0.7,0.2,1.3,0.4,1.7,0.6c0.5,0.2,0.8,0.4,1,0.5l-1.7,4.6c-0.8-0.4-1.7-0.8-2.7-1.1
		C87.3,121.8,86.2,121.6,85,121.6z"/>
	<path d="M122.6,129.9c0,2.2-0.3,4.1-1,5.7c-0.6,1.7-1.5,3-2.7,4.1c-1.1,1.1-2.5,2-4,2.5c-1.6,0.6-3.2,0.8-5,0.8
		c-1.7,0-3.4-0.3-4.9-0.8s-2.9-1.4-4-2.5c-1.2-1.1-2.1-2.5-2.7-4.1c-0.7-1.7-1-3.6-1-5.7s0.3-4.1,1-5.7c0.7-1.7,1.6-3,2.8-4.2
		c1.2-1.1,2.5-2,4-2.5c1.5-0.6,3.1-0.8,4.8-0.8c1.7,0,3.4,0.3,4.9,0.8c1.5,0.6,2.9,1.4,4,2.5c1.2,1.1,2.1,2.5,2.7,4.2
		C122.2,125.8,122.6,127.7,122.6,129.9z M103.1,129.9c0,1.2,0.2,2.4,0.5,3.4c0.3,1,0.7,1.9,1.3,2.6c0.6,0.7,1.3,1.3,2.1,1.7
		c0.8,0.4,1.8,0.6,2.9,0.6c1.1,0,2-0.2,2.8-0.6c0.8-0.4,1.6-0.9,2.1-1.7c0.6-0.7,1-1.6,1.3-2.6c0.3-1,0.5-2.1,0.5-3.4
		c0-1.2-0.2-2.4-0.5-3.4c-0.3-1-0.7-1.9-1.3-2.6c-0.6-0.7-1.3-1.3-2.1-1.7c-0.8-0.4-1.8-0.6-2.8-0.6c-1.1,0-2,0.2-2.9,0.6
		c-0.8,0.4-1.5,1-2.1,1.7c-0.6,0.7-1,1.6-1.3,2.6C103.3,127.6,103.1,128.7,103.1,129.9z"/>
	<path d="M144.1,119.9c0.3,1,0.6,2.1,1,3.4c0.4,1.3,0.7,2.6,1.1,3.9c0.4,1.3,0.8,2.7,1.2,4c0.4,1.3,0.8,2.6,1.2,3.7
		c0.3-1.2,0.6-2.6,1-4.1c0.3-1.5,0.6-3,0.9-4.5c0.3-1.6,0.6-3.1,0.9-4.7c0.3-1.6,0.5-3.1,0.8-4.5h6c-0.9,4.3-1.9,8.6-3,13
		s-2.3,8.5-3.6,12.5h-5.2c-0.9-2.3-1.7-4.8-2.5-7.4c-0.8-2.6-1.6-5.2-2.4-7.8c-0.8,2.6-1.6,5.2-2.4,7.8c-0.8,2.6-1.6,5-2.5,7.4h-5.2
		c-1.3-3.9-2.5-8.1-3.6-12.5s-2.1-8.7-3-13h6.2c0.2,1.4,0.5,2.9,0.8,4.5c0.3,1.6,0.6,3.1,0.9,4.7c0.3,1.6,0.6,3.1,1,4.5
		c0.3,1.5,0.7,2.8,1,4.1c0.4-1.2,0.9-2.5,1.3-3.8c0.4-1.3,0.8-2.7,1.2-4c0.4-1.3,0.8-2.6,1.1-3.9c0.3-1.2,0.6-2.4,0.9-3.3H144.1z"/>
	<path d="M178.9,142.6c-1.6-2.9-3.4-5.8-5.3-8.6c-1.9-2.8-3.9-5.5-6.1-8v16.7h-5.7v-25.4h4.7c0.8,0.8,1.7,1.8,2.7,3s2,2.4,3,3.8
		s2,2.7,3,4.1c1,1.4,1.9,2.8,2.8,4.1v-15h5.7v25.4H178.9z"/>
</g>
<g>
	<path class="st3" d="M80.2,224.4c-1-2.1-2-4.4-3-6.6c-1-2.3-1.9-4.6-2.8-6.8c-0.9-2.2-1.7-4.4-2.4-6.5c-0.7-2.1-1.4-3.9-1.9-5.5
		h6.3c0.5,1.5,1,3.1,1.6,4.8c0.6,1.7,1.2,3.4,1.8,5.1c0.6,1.7,1.2,3.3,1.7,4.8c0.6,1.5,1.1,2.9,1.6,4c0.5-1.1,1-2.4,1.6-4
		c0.6-1.5,1.2-3.2,1.8-4.8c0.6-1.7,1.2-3.4,1.8-5.1c0.6-1.7,1.1-3.3,1.6-4.8h6.1c-0.6,1.6-1.2,3.5-2,5.5c-0.7,2.1-1.6,4.2-2.4,6.5
		c-0.9,2.3-1.8,4.5-2.8,6.8c-1,2.3-2,4.5-3,6.6H80.2z"/>
	<path class="st3" d="M122.4,211.7c0,2.2-0.3,4.1-1,5.7c-0.6,1.7-1.5,3-2.7,4.1c-1.1,1.1-2.5,2-4,2.5c-1.6,0.6-3.2,0.8-5,0.8
		c-1.7,0-3.4-0.3-4.9-0.8s-2.9-1.4-4-2.5s-2.1-2.5-2.7-4.1c-0.7-1.7-1-3.6-1-5.7s0.3-4.1,1-5.7c0.7-1.7,1.6-3,2.8-4.2
		c1.2-1.1,2.5-2,4-2.5c1.5-0.6,3.1-0.8,4.8-0.8c1.7,0,3.4,0.3,4.9,0.8c1.5,0.6,2.9,1.4,4,2.5c1.2,1.1,2.1,2.5,2.7,4.2
		C122.1,207.6,122.4,209.5,122.4,211.7z M103,211.7c0,1.2,0.2,2.4,0.5,3.4s0.7,1.9,1.3,2.6c0.6,0.7,1.3,1.3,2.1,1.7
		c0.8,0.4,1.8,0.6,2.9,0.6c1.1,0,2-0.2,2.8-0.6c0.8-0.4,1.6-0.9,2.1-1.7c0.6-0.7,1-1.6,1.3-2.6s0.5-2.1,0.5-3.4s-0.2-2.4-0.5-3.4
		s-0.7-1.9-1.3-2.6c-0.6-0.7-1.3-1.3-2.1-1.7s-1.8-0.6-2.8-0.6c-1.1,0-2,0.2-2.9,0.6c-0.8,0.4-1.5,1-2.1,1.7c-0.6,0.7-1,1.6-1.3,2.6
		S103,210.5,103,211.7z"/>
	<path class="st3" d="M145.2,199v4.9h-7.7v20.5h-5.7v-20.5h-7.7V199H145.2z"/>
	<path class="st3" d="M148.9,224.4V199h17.2v4.8h-11.5v5h10.2v4.7h-10.2v6.1h12.3v4.8H148.9z"/>
</g>
<polygon class="st4" points="60.7,29.7 34.7,58.7 21.7,45.3 27.6,41.5 34.3,48.2 53.6,24.9 "/>
<polygon class="st4" points="60.7,112.2 34.7,141.2 21.7,127.9 27.6,124.1 34.3,130.8 53.6,107.5 "/>
<g>
</g>
<g>
</g>
<g>
</g>
<g>
</g>
<g>
</g>
</svg>
